# xmcd CD database file
#
# Track frame offsets:
#	150
#	14842
#	27455
#	40092
#	52887
#	66575
#	79887
#	92135
#	105202
#	117172
#	128760
#	142515
#	157290
#	169909
#	183505
#	196537
#	209780
#	221215
#	235532
#	248565
#
# Disc length: 3494 seconds
#
# Revision: 0
# Processed by: cddbd v1.5.2PL0 Copyright (c) Steve Scherf et al.
# Submitted via: CDex 1.50Beta6
#
DISCID=180da414
DTITLE=Tex Ritter - Country Hits and Cowboy Classics
DYEAR=2000
DGENRE=Country
TTITLE0=Take Me Back To My Boots And Saddel
TTITLE1=Singin' In The Saddle
TTITLE2=Jingle, Jangle, Jingle
TTITLE3=I'm Wastin' My Tears On you
TTITLE4=Theres A New Moon Over My Sholder
TTITLE5=Jealous Heart
TTITLE6=You Two-Timed Me One Time Too Often
TTITLE7=You Will Have To Pay (For Your Yesterday)
TTITLE8=Green Grow The Lilacs
TTITLE9=Christmas Carols By The Old Corral
TTITLE10=Long Time Gone
TTITLE11=Rounded Up In Glory
TTITLE12=Blood On The Saddel
TTITLE13=Boll Weevil
TTITLE14=Billy The Kid
TTITLE15=When You Leave Don't Slam The Door
TTITLE16=Have I Told You Lately That I Love You
TTITLE17=Rye Whiskey
TTITLE18=Pecos Bill (With Andy Parker and The Plainsman)
TTITLE19=Deck Of Cards
EXTD=YEAR: 2000
EXTT0=
EXTT1=
EXTT2=
EXTT3=
EXTT4=
EXTT5=
EXTT6=
EXTT7=
EXTT8=
EXTT9=
EXTT10=
EXTT11=
EXTT12=
EXTT13=
EXTT14=
EXTT15=
EXTT16=
EXTT17=
EXTT18=
EXTT19=
PLAYORDER=
